<?xml version="1.0" encoding="UTF-8"?>
<svg width="232px" height="62px" viewBox="0 0 232 62" version="1.1" xmlns="http://www.w3.org/2000/svg" xmlns:xlink="http://www.w3.org/1999/xlink">
    <!-- Generator: Sketch 48.2 (47327) - http://www.bohemiancoding.com/sketch -->
    <title>Download_on_the_App_Store_Badge Copy 3</title>
    <desc>Created with Sketch.</desc>
    <defs></defs>
    <g id="多定价货币-首页" stroke="none" stroke-width="1" fill="none" fill-rule="evenodd" transform="translate(-1245.000000, -2700.000000)">
        <g id="Group-7-Copy-5" transform="translate(0.000000, 2017.000000)">
            <g id="Group-5" transform="translate(1056.000000, 315.000000)">
                <g id="Group-6">
                    <g id="Download_on_the_App_Store_Badge-Copy-3" transform="translate(190.000000, 369.000000)">
                        <rect id="Rectangle" stroke="#979797" fill="#000000" x="0" y="0" width="230" height="60" rx="30"></rect>
                        <g id="Group-2" transform="translate(39.000000, 12.000000)" fill="#FFFFFF">
                            <path d="M4.68587639,13.4820932 L4.68587639,22.5289682 C4.68587639,23.7320932 3.74056389,24.6930307 2.53743889,24.6930307 C1.34212639,24.6930307 0.185876395,23.7242807 0.185876395,22.5289682 L0.185876395,13.4820932 C0.185876395,12.3024057 1.34212639,11.3336557 2.53743889,11.3336557 C3.71712639,11.3336557 4.68587639,12.3024057 4.68587639,13.4820932 Z M5.52962639,25.7477182 C5.52962639,27.0289682 6.56087639,28.0602182 7.84212639,28.0602182 L9.39681389,28.0602182 L9.42025139,32.8336557 C9.42025139,35.7164682 13.7327514,35.6930307 13.7327514,32.8336557 L13.7327514,28.0602182 L16.6390014,28.0602182 L16.6390014,32.8336557 C16.6390014,35.7008432 20.9749389,35.7086557 20.9749389,32.8336557 L20.9749389,28.0602182 L22.5530639,28.0602182 C23.8186889,28.0602182 24.8499389,27.0289682 24.8499389,25.7477182 L24.8499389,11.7320932 L5.52962639,11.7320932 L5.52962639,25.7477182 Z M24.9046264,10.9742807 L5.44368889,10.9742807 C5.44368889,7.63053071 7.44368889,4.72428071 10.4124389,3.20865571 L8.92025139,0.45084321 C8.70150139,0.0680307104 9.25618889,-0.17415679 9.44368889,0.15396821 L10.9593139,2.93521821 C13.6858764,1.72428071 16.8186889,1.78678071 19.4202514,2.93521821 L20.9280639,0.16178071 C21.1233764,-0.17415679 21.6702514,0.0758432104 21.4515014,0.45865571 L19.9593139,3.20865571 C22.9046264,4.72428071 24.9046264,7.63053071 24.9046264,10.9742807 Z M11.5686889,6.63834321 C11.5686889,6.19303071 11.2093139,5.81803071 10.7483764,5.81803071 C10.3030639,5.81803071 9.95150139,6.19303071 9.95150139,6.63834321 C9.95150139,7.08365571 10.3108764,7.45865571 10.7483764,7.45865571 C11.2093139,7.45865571 11.5686889,7.08365571 11.5686889,6.63834321 Z M20.4280639,6.63834321 C20.4280639,6.19303071 20.0686889,5.81803071 19.6311889,5.81803071 C19.1702514,5.81803071 18.8108764,6.19303071 18.8108764,6.63834321 C18.8108764,7.08365571 19.1702514,7.45865571 19.6311889,7.45865571 C20.0686889,7.45865571 20.4280639,7.08365571 20.4280639,6.63834321 Z M27.8343139,11.3336557 C26.6546264,11.3336557 25.6858764,12.2789682 25.6858764,13.4820932 L25.6858764,22.5289682 C25.6858764,23.7320932 26.6546264,24.6930307 27.8343139,24.6930307 C29.0374389,24.6930307 30.1858764,23.7242807 30.1858764,22.5289682 L30.1858764,13.4820932 C30.1858764,12.2789682 29.0296264,11.3336557 27.8343139,11.3336557 Z" id="Shape" fill-rule="nonzero"></path>
                            <path d="M51.576,6.946 C51.576,8.51400784 51.1000048,9.75066214 50.148,10.656 C49.1959952,11.5520045 47.8613419,12 46.144,12 L42.7,12 L42.7,1.766 L46.144,1.766 C47.9266756,1.766 49.2613289,2.15799608 50.148,2.942 C51.1000048,3.7820042 51.576,5.11665752 51.576,6.946 Z M50.106,6.946 C50.106,5.56465976 49.8026697,4.58000294 49.196,3.992 C48.5799969,3.39466368 47.5626738,3.096 46.144,3.096 L44.128,3.096 L44.128,10.656 L46.144,10.656 C47.4786733,10.656 48.4819966,10.3153367 49.154,9.634 C49.7886698,8.99933016 50.106,8.10333912 50.106,6.946 Z M60.2,8.318 C60.2,9.4380056 59.8266704,10.3433299 59.08,11.034 C58.3799965,11.6780032 57.5120052,12 56.476,12 C55.4399948,12 54.5766701,11.6780032 53.886,11.034 C53.1393296,10.3433299 52.766,9.4380056 52.766,8.318 C52.766,7.22599454 53.1066633,6.31600364 53.788,5.588 C54.4693367,4.85999636 55.3653278,4.496 56.476,4.496 C57.5866722,4.496 58.4919965,4.86466298 59.192,5.602 C59.8640034,6.32067026 60.2,7.22599454 60.2,8.318 Z M58.702,8.318 C58.702,7.58999636 58.4966687,6.99733562 58.086,6.54 C57.6753313,6.073331 57.13867,5.84 56.476,5.84 C55.81333,5.84 55.2813353,6.06866438 54.88,6.526 C54.4693313,6.98333562 54.264,7.58066298 54.264,8.318 C54.264,9.02733688 54.4833311,9.60133114 54.922,10.04 C55.3326687,10.4600021 55.8506635,10.67 56.476,10.67 C57.1200032,10.67 57.6519979,10.4553355 58.072,10.026 C58.4920021,9.59666452 58.702,9.02733688 58.702,8.318 Z M72.534,4.664 L69.944,11.888 L68.544,11.888 L66.752,6.624 L64.96,11.888 L63.56,11.888 L60.97,4.664 L62.482,4.664 L64.26,10.194 L66.052,4.664 L67.452,4.664 L69.244,10.194 L71.022,4.664 L72.534,4.664 Z M80.192,11.888 L78.764,11.888 L78.764,7.758 C78.764,7.07666326 78.6380013,6.58666816 78.386,6.288 C78.1246654,5.99866522 77.723336,5.854 77.182,5.854 C76.3046623,5.854 75.5813362,6.28332904 75.012,7.142 L75.012,11.888 L73.584,11.888 L73.584,4.622 L75.012,4.622 L75.012,5.392 C75.7213369,4.80399706 76.4773293,4.51 77.28,4.51 C79.221343,4.51 80.192,5.59265584 80.192,7.758 L80.192,11.888 Z M83.314,11.888 L81.872,11.888 L81.872,1.668 L83.314,1.668 L83.314,11.888 Z M92.148,8.318 C92.148,9.4380056 91.7746704,10.3433299 91.028,11.034 C90.3279965,11.6780032 89.4600052,12 88.424,12 C87.3879948,12 86.5246701,11.6780032 85.834,11.034 C85.0873296,10.3433299 84.714,9.4380056 84.714,8.318 C84.714,7.22599454 85.0546633,6.31600364 85.736,5.588 C86.4173367,4.85999636 87.3133278,4.496 88.424,4.496 C89.5346722,4.496 90.4399965,4.86466298 91.14,5.602 C91.8120034,6.32067026 92.148,7.22599454 92.148,8.318 Z M90.65,8.318 C90.65,7.58999636 90.4446687,6.99733562 90.034,6.54 C89.6233313,6.073331 89.08667,5.84 88.424,5.84 C87.76133,5.84 87.2293353,6.06866438 86.828,6.526 C86.4173313,6.98333562 86.212,7.58066298 86.212,8.318 C86.212,9.02733688 86.4313311,9.60133114 86.87,10.04 C87.2806687,10.4600021 87.7986635,10.67 88.424,10.67 C89.0680032,10.67 89.5999979,10.4553355 90.02,10.026 C90.4400021,9.59666452 90.65,9.02733688 90.65,8.318 Z M99.68,11.888 L98.28,11.888 C98.1493327,11.5706651 98.0653335,11.2486683 98.028,10.922 C97.2813296,11.6406703 96.4460046,12 95.522,12 C94.8406633,12 94.2713356,11.8226684 93.814,11.468 C93.3566644,11.1133316 93.128,10.6326697 93.128,10.026 C93.128,9.092662 93.5386626,8.40200224 94.36,7.954 C95.1253372,7.5339979 96.3293251,7.29133366 97.972,7.226 C97.9159997,6.72199748 97.7666679,6.36266774 97.524,6.148 C97.2813321,5.93333226 96.9220024,5.826 96.446,5.826 C95.7646633,5.826 95.228002,6.14799678 94.836,6.792 L93.492,6.176 C94.1360032,5.0559944 95.12066,4.496 96.446,4.496 C97.4446717,4.496 98.2006641,4.78066382 98.714,5.35 C99.1993358,5.89133604 99.442,6.6519951 99.442,7.632 L99.442,10.726 C99.442,11.1553355 99.5213325,11.5426649 99.68,11.888 Z M97.986,8.542 C95.7366554,8.5886669 94.612,9.08332862 94.612,10.026 C94.612,10.1753341 94.6726661,10.3106661 94.794,10.432 C94.9620008,10.5906675 95.2046651,10.67 95.522,10.67 C96.1286697,10.67 96.6606644,10.4786686 97.118,10.096 C97.5753356,9.71333142 97.8646661,9.1953366 97.986,8.542 Z M107.66,11.888 L106.232,11.888 L106.232,11.062 C105.62533,11.6873365 104.850671,12 103.908,12 C103.030662,12 102.279336,11.6500035 101.654,10.95 C100.99133,10.2033296 100.66,9.26067236 100.66,8.122 C100.66,7.08599482 100.967997,6.22267012 101.584,5.532 C102.200003,4.85066326 103.002662,4.51 103.992,4.51 C104.878671,4.51 105.62533,4.79466382 106.232,5.364 L106.232,1.668 L107.66,1.668 L107.66,11.888 Z M106.232,8.248 C106.232,7.51066298 106.031335,6.9320021 105.63,6.512 C105.228665,6.08266452 104.715336,5.868 104.09,5.868 C103.539331,5.868 103.077335,6.07333128 102.704,6.484 C102.330665,6.9040021 102.144,7.44999664 102.144,8.122 C102.144,8.88733716 102.344665,9.51266424 102.746,9.998 C103.110002,10.4366689 103.529998,10.656 104.006,10.656 C104.659337,10.656 105.186665,10.460002 105.588,10.068 C106.017335,9.63866452 106.232,9.03200392 106.232,8.248 Z M123.186,11.888 L121.66,11.888 L120.498,9.074 L115.976,9.074 L114.828,11.888 L113.302,11.888 L117.53,1.654 L118.958,1.654 L123.186,11.888 Z M119.924,7.73 L118.244,3.614 L116.564,7.73 L119.924,7.73 Z M132.146,4.552 C132.146,5.46667124 131.805337,6.18533072 131.124,6.708 C130.479997,7.21200252 129.635339,7.464 128.59,7.464 L125.538,7.464 L125.538,11.888 L124.096,11.888 L124.096,1.654 L128.59,1.654 C129.654005,1.654 130.50333,1.89199762 131.138,2.368 C131.810003,2.8813359 132.146,3.60932862 132.146,4.552 Z M130.662,4.552 C130.662,3.50666144 129.962007,2.984 128.562,2.984 L125.538,2.984 L125.538,6.12 L128.562,6.12 C129.962007,6.12 130.662,5.59733856 130.662,4.552 Z M142.66,11.888 L140.784,11.888 L136.542,6.666 L134.834,8.206 L134.834,11.888 L133.406,11.888 L133.406,1.654 L134.834,1.654 L134.834,6.428 L140.056,1.654 L142.058,1.654 L137.606,5.7 L142.66,11.888 Z" id="Download-APK"></path>
                            <path d="M45.576,28.378 L49.998,28.378 L49.36,26.2 C48.81,24.44 48.326,22.636 47.82,20.81 L47.732,20.81 C47.27,22.658 46.764,24.44 46.236,26.2 L45.576,28.378 Z M51.978,35 L50.614,30.38 L44.982,30.38 L43.596,35 L41,35 L46.368,18.808 L49.316,18.808 L54.684,35 L51.978,35 Z M56.598,35 L56.598,22.9 L58.666,22.9 L58.864,24.572 L58.93,24.572 C60.052,23.494 61.284,22.592 62.934,22.592 C65.508,22.592 66.652,24.308 66.652,27.388 L66.652,35 L64.122,35 L64.122,27.696 C64.122,25.606 63.506,24.77 62.076,24.77 C60.954,24.77 60.184,25.342 59.106,26.42 L59.106,35 L56.598,35 Z M74.506,35.286 C71.47,35.286 69.512,32.976 69.512,28.972 C69.512,25.034 71.998,22.592 74.704,22.592 C76.09,22.592 76.97,23.12 77.96,23.956 L77.85,21.954 L77.85,17.466 L80.38,17.466 L80.38,35 L78.312,35 L78.092,33.636 L78.026,33.636 C77.124,34.56 75.87,35.286 74.506,35.286 Z M75.1,33.196 C76.112,33.196 76.97,32.734 77.85,31.722 L77.85,25.804 C76.948,24.99 76.09,24.704 75.188,24.704 C73.494,24.704 72.13,26.31 72.13,28.928 C72.13,31.678 73.208,33.196 75.1,33.196 Z M84.186,35 L84.186,22.9 L86.254,22.9 L86.452,25.078 L86.518,25.078 C87.376,23.516 88.652,22.592 89.95,22.592 C90.544,22.592 90.94,22.68 91.314,22.856 L90.852,25.056 C90.434,24.924 90.126,24.858 89.642,24.858 C88.652,24.858 87.464,25.54 86.694,27.454 L86.694,35 L84.186,35 Z M97.782,35.286 C94.79,35.286 92.084,32.976 92.084,28.972 C92.084,24.924 94.79,22.592 97.782,22.592 C100.774,22.592 103.48,24.924 103.48,28.972 C103.48,32.976 100.774,35.286 97.782,35.286 Z M97.782,33.218 C99.696,33.218 100.884,31.524 100.884,28.972 C100.884,26.398 99.696,24.682 97.782,24.682 C95.89,24.682 94.702,26.398 94.702,28.972 C94.702,31.524 95.89,33.218 97.782,33.218 Z M106.45,35 L106.45,22.9 L108.958,22.9 L108.958,35 L106.45,35 Z M107.704,20.634 C106.78,20.634 106.098,20.018 106.098,19.138 C106.098,18.236 106.78,17.642 107.704,17.642 C108.628,17.642 109.332,18.236 109.332,19.138 C109.332,20.018 108.628,20.634 107.704,20.634 Z M116.944,35.286 C113.908,35.286 111.95,32.976 111.95,28.972 C111.95,25.034 114.436,22.592 117.142,22.592 C118.528,22.592 119.408,23.12 120.398,23.956 L120.288,21.954 L120.288,17.466 L122.818,17.466 L122.818,35 L120.75,35 L120.53,33.636 L120.464,33.636 C119.562,34.56 118.308,35.286 116.944,35.286 Z M117.538,33.196 C118.55,33.196 119.408,32.734 120.288,31.722 L120.288,25.804 C119.386,24.99 118.528,24.704 117.626,24.704 C115.932,24.704 114.568,26.31 114.568,28.928 C114.568,31.678 115.646,33.196 117.538,33.196 Z" id="Android"></path>
                        </g>
                    </g>
                </g>
            </g>
        </g>
    </g>
</svg>