<svg xmlns="http://www.w3.org/2000/svg" width="120" height="34" viewBox="0 0 120 34">
    <g fill="#FFF" fill-rule="evenodd" opacity=".6">
        <path d="M69.56 12.716h3.235v14.868H69.56zM51.495 8.479v4.344a6.567 6.567 0 0 0-4.583-1.857c-3.644 0-6.598 2.962-6.598 6.616 0 3.654 2.954 6.616 6.598 6.616 1.78 0 3.396-.707 4.583-1.857v4.074a10.045 10.045 0 0 1-4.718 1.17c-5.584 0-10.11-4.54-10.11-10.138 0-5.599 4.526-10.137 10.11-10.137 1.704 0 3.31.422 4.718 1.169zM52.574 19.905c0-2.07.734-3.83 2.202-5.282 1.469-1.451 3.258-2.177 5.368-2.177 2.12 0 3.919.73 5.397 2.192 1.458 1.461 2.188 3.256 2.188 5.385 0 2.147-.734 3.947-2.203 5.399-1.478 1.442-3.291 2.162-5.44 2.162-2.13 0-3.914-.735-5.353-2.206-1.44-1.452-2.16-3.276-2.16-5.473zm3.472.018c0 1.432.38 2.565 1.138 3.399.778.843 1.804 1.265 3.078 1.265 1.283 0 2.31-.417 3.077-1.25.769-.834 1.153-1.948 1.153-3.34 0-1.393-.384-2.506-1.153-3.34-.778-.843-1.803-1.265-3.077-1.265-1.255 0-2.27.422-3.049 1.265-.778.844-1.167 1.932-1.167 3.266zM114.496 19.88l5.452 7.618-4.07.152-3.506-5.029-3.88 5.013-4.07-.152 6.033-7.61-4.907-7.04 3.803-.141 3.225 4.506 3.56-4.49 3.803.142-5.443 7.03zM103.403 10.562H94.29v5.237h8.848v3.252H94.29v5.219h9.113v3.252H90.859V7.31h12.544zM69.02 9.18c0-.58.211-1.083.634-1.506a2.066 2.066 0 0 1 1.516-.635c.599 0 1.11.212 1.531.635.422.413.633.92.633 1.52s-.21 1.113-.633 1.536a2.035 2.035 0 0 1-1.516.635c-.599 0-1.11-.212-1.531-.635a2.112 2.112 0 0 1-.634-1.55zM75.222 13.99l3.235 2.067v11.624h-3.235z"/>
        <path fill-rule="nonzero" d="M88.453 27.696v-8.222c0-3.881-3.139-7.028-7.01-7.028-1.933 0-4.44.571-6.221 1.539l1.54 2.852c1.282-.696 3.262-1.147 4.68-1.147a3.78 3.78 0 0 1 3.775 3.784v8.222h3.236zM21.293 13.103c-2.557-2.513-6.622-2.513-9.152 0-2.53 2.54-2.504 6.674.026 9.214s6.65 2.567 9.18.027c.135-.135.43-.46.888-1l-3.042-3.08c-.511.594-.807.946-.861 1a2.204 2.204 0 0 1-3.123 0c-.861-.865-.861-2.27-.027-3.108.835-.837 2.235-.837 3.096.027l8.103 8.215c-2.234 3.242-5.922 5.269-9.96 5.269-6.676 0-12.114-5.486-12.114-12.24 0-6.756 5.438-12.241 12.114-12.241 3.903 0 7.483 1.891 9.718 4.945-.835.973-1.804 2.053-2.585 3-.161.215-.35.404-.511.594l3.042 3.08c.242-.297.484-.568.753-.892.996-1.189 2.1-2.432 3.123-3.62.404-.46.78-.865 1.077-1.19.134-.135.242-.27.323-.35.018-.019.027-.055.027-.109A16.348 16.348 0 0 0 16.42.863C7.349.863 0 8.293 0 17.426S7.349 33.99 16.42 33.99c4.12 0 7.538-1.297 10.876-4.161 3.042-2.594 4.415-6.16 4.415-6.16L21.293 13.102z"/>
    </g>
</svg>
