<?xml version="1.0" standalone="no"?><!DOCTYPE svg PUBLIC "-//W3C//DTD SVG 1.1//EN" "http://www.w3.org/Graphics/SVG/1.1/DTD/svg11.dtd"><svg t="1533356207490" class="icon" style="" viewBox="0 0 3614 1024" version="1.1" xmlns="http://www.w3.org/2000/svg" p-id="4003" xmlns:xlink="http://www.w3.org/1999/xlink" width="705.859375" height="200"><defs><style type="text/css"></style></defs><path d="M2687.699 571.573v240.52h-98.003v-245.76c-10.598-56.892-59.856-99.389-119.04-99.389l-0.365 0.001h0.019l-0.383-0.001c-60.101 0-109.965 43.836-119.361 101.28l-0.094 0.699v243.17h-97.973V375.628l75.144 47.767c37.969-32.756 87.787-52.706 142.264-52.706h0.425-0.022c115.2 0 209.559 88.606 217.6 200.885h-0.211zM1659.181 320.211c-33.417 17.663-61.836 40.009-85.643 66.574l-0.253 0.287c-36.577-50.45-95.326-82.884-161.651-82.884h-0.086 0.005c-110.121 0.034-199.379 89.313-199.379 199.439v0.095-0.005 0.078c0 110.147 89.292 199.439 199.439 199.439 36.106 0 69.971-9.594 99.184-26.373l-0.971 0.514c11.582 36.99 28.745 69.108 50.791 97.212l-0.495-0.655c-42.717 24.014-93.765 38.159-148.116 38.159h-0.511 0.026c-170.165 0-308.104-138.059-308.104-308.375 0-170.285 137.939-308.375 308.104-308.375 101.496 0 191.488 49.092 247.627 124.868z m145.77 491.881c-0.761 0.01-1.66 0.015-2.56 0.015-120.227 0-217.69-97.463-217.69-217.69s97.463-217.69 217.69-217.69c0.9 0 1.799 0.005 2.697 0.016l-0.137-0.001c0.761-0.01 1.66-0.015 2.56-0.015 120.227 0 217.69 97.463 217.69 217.69s-97.463 217.69-217.69 217.69c-0.9 0-1.799-0.005-2.697-0.016l0.137 0.001z m0-96.738c0.568 0.01 1.238 0.015 1.909 0.015 66.8 0 120.952-54.152 120.952-120.952s-54.152-120.952-120.952-120.952c-0.671 0-1.341 0.005-2.009 0.016l0.101-0.001c-65.974 1.074-119.044 54.808-119.044 120.937s53.07 119.863 118.943 120.936l0.101 0.001z m278.196-338.612h96.768v435.351h-96.768v-435.32z m1052.311-77.102h-276.811v158.268h268.77v98.274h-268.77v157.666h276.811v98.244H2754.47V201.396h380.988v98.274z m203.475 293.858l-148.992-216.757h123.211c3.614 6.084 8.945 14.396 15.902 25.028-126.326-203.424-109.569-178.202-92.83-152.968l143.669 230.37c8.132 12.348 13.884 21.504 17.318 27.467l4.969 8.584 88.546-138.481h117.218l-146.372 213.112 151.672 222.268h-121.705l-93.425-142.306-5.03 7.499c-4.126 6.114-10.3 15.541-18.492 28.311-8.162 12.77-16.926 26.232-26.263 40.508s-18.131 27.799-26.323 40.568c-6.957 10.842-12.258 19.305-15.872 25.389H3189.88l149.052-218.594zM2065.016 261.18a54.571 54.571 0 0 1-0.003-0.596c0-17.954 7.481-34.161 19.496-45.674l0.023-0.022c13.011-13.011 28.612-19.546 46.773-19.546 18.462 0 34.214 6.536 47.224 19.546 13.011 12.71 19.516 28.311 19.516 46.743 0 18.462-6.505 34.214-19.516 47.224-12.71 13.011-28.311 19.516-46.773 19.516-0.316 0.006-0.689 0.009-1.063 0.009-18.102 0-34.457-7.476-46.147-19.51l-0.015-0.015c-12.055-11.785-19.529-28.21-19.529-46.382 0-0.455 0.005-0.909 0.014-1.362l-0.001 0.068zM647.228 372.736c-77.402-76.137-200.433-76.137-277.022 0-76.589 76.951-75.776 202.21 0.813 279.191 76.589 76.951 201.276 77.764 277.865 0.813 1.295-1.325 6.686-7.258 16.143-17.83l-92.371-92.913c-9.487 11.053-14.517 16.866-15.059 17.408-26.052 26.202-68.427 26.202-94.509 0s-26.082-68.789-0.813-94.148c25.269-25.389 67.644-25.389 93.696 0.813l246.995 247.989c-67.614 98.244-181.007 160.527-303.194 160.527-202.089 0-366.682-166.189-366.682-370.869 0-204.649 164.593-370.869 366.682-370.869 118.152 0 226.515 57.314 294.159 149.835-10.903 12.71-38.761 44.604-83.516 95.684l91.136 91.287 151.251-171.43C874.395 122.364 701.156 1.973 499.786 1.866h-0.013C225.16 1.866 2.711 226.995 2.711 503.716s222.449 501.911 497.062 501.911c124.687 0 228.141-39.304 329.186-126.072 92.07-78.607 135.349-187.573 135.349-187.573L647.26 372.735z" fill="#bfbfbf" p-id="4004"></path></svg>