<svg xmlns="http://www.w3.org/2000/svg" width="142" height="142" viewBox="0 0 142 142">
    <defs>
        <linearGradient id="a" x1="100%" x2="0%" y1="50%" y2="50%">
            <stop offset="0%" stop-color="#FFE070"/>
            <stop offset="100%" stop-color="#FFB900"/>
        </linearGradient>
    </defs>
    <g fill="none" fill-rule="nonzero">
        <path stroke="#FFBC32" stroke-width="2" d="M70.786 33.127c.162-.032.324-.064.502-.08l56.164-2.804C114.813 12.597 94.136 1.108 70.786 1.108c-23.35 0-44.027 11.489-56.666 29.135l56.164 2.803c.178.017.34.033.502.081zm68.398 24.274c-3.889 9.544-13.271 16.286-24.193 16.286-16.236 0-30.107-10.29-35.422-24.712-1.329-1.199-4.554-2.69-8.767-2.69-4.18 0-7.438 1.507-8.782 2.69-5.332 14.438-19.203 24.712-35.423 24.712-10.922 0-20.304-6.741-24.193-16.286a68.795 68.795 0 0 0-1.296 13.385c0 38.485 31.193 69.678 69.678 69.678 38.486 0 69.679-31.193 69.679-69.678 0-4.57-.438-9.058-1.28-13.385zM105.01 95.838c-7.535 11.732-20.32 18.748-34.223 18.748-13.903 0-26.688-7.032-34.223-18.748-.86-1.329-.47-3.128.875-4.003 1.328-.875 3.127-.47 4.002.875 6.45 10.096 17.42 16.091 29.33 16.091 11.91 0 22.864-5.98 29.33-16.09.875-1.33 2.673-1.75 4.002-.876a2.882 2.882 0 0 1 .907 4.003zm-34.223-57.04a3.125 3.125 0 0 1-.794.05l-5.752-.292a35.219 35.219 0 0 1-.406 3.484c2.09-.697 4.473-1.102 6.952-1.102 2.48 0 4.845.405 6.952 1.102a40.993 40.993 0 0 1-.405-3.484l-5.753.291c-.292.017-.551 0-.794-.048z"/>
        <path fill="url(#a)" d="M25.597 66.885c16.82 0 30.658-13.06 31.841-29.605l-46.36-2.333c-1.653.065-5.769 4.18-5.801 5.801v5.801c0 11.214 9.106 20.337 20.32 20.337zm88.378 0c11.213 0 20.32-9.123 20.32-20.32v-5.8c-.032-1.621-4.164-5.753-5.801-5.802l-46.36 2.317c1.183 16.545 15.02 29.605 31.84 29.605h.001z" transform="translate(1 1)"/>
    </g>
</svg>
